<mxfile host="app.diagrams.net" modified="2020-11-11T14:27:31.582Z" agent="5.0 (Windows)" etag="j0gn6kovO-C4NaHzJjc-" version="13.9.6" type="github">
  <diagram id="SOVk1TfJtFDO8fkZRAg2" name="Page-1">
    <mxGraphModel dx="1422" dy="791" grid="1" gridSize="10" guides="1" tooltips="1" connect="1" arrows="1" fold="1" page="1" pageScale="1" pageWidth="827" pageHeight="1169" math="0" shadow="0">
      <root>
        <mxCell id="0" />
        <mxCell id="1" parent="0" />
        <mxCell id="SjrpTv4pFNnKmY8m8KMZ-1" value="My Understanding of things in my own words" style="rounded=0;whiteSpace=wrap;html=1;fillColor=#dae8fc;strokeColor=#6c8ebf;" vertex="1" parent="1">
          <mxGeometry x="40" y="40" width="170" height="50" as="geometry" />
        </mxCell>
        <mxCell id="SjrpTv4pFNnKmY8m8KMZ-2" value="&lt;div&gt;Examples&lt;/div&gt;&lt;div&gt;No Example in an example of what is below it&lt;br&gt;&lt;/div&gt;" style="rounded=0;whiteSpace=wrap;html=1;fillColor=#dae8fc;strokeColor=#6c8ebf;" vertex="1" parent="1">
          <mxGeometry x="620" y="40" width="180" height="50" as="geometry" />
        </mxCell>
        <mxCell id="SjrpTv4pFNnKmY8m8KMZ-3" value="Semirings" style="rounded=1;whiteSpace=wrap;html=1;fillColor=#f8cecc;strokeColor=#b85450;" vertex="1" parent="1">
          <mxGeometry x="354" y="160" width="120" height="40" as="geometry" />
        </mxCell>
        <mxCell id="SjrpTv4pFNnKmY8m8KMZ-4" value="&lt;div style=&quot;font-size: 16px&quot; align=&quot;left&quot;&gt;&lt;b&gt;What a semiring is:&lt;/b&gt;&lt;br&gt;&lt;/div&gt;&lt;div&gt;&lt;br&gt;&lt;/div&gt;&lt;div align=&quot;left&quot;&gt;A semiring, is nearly a ring except for the fact that its elements don&#39;t have opposites for addition&lt;br&gt;&lt;/div&gt;" style="rounded=0;whiteSpace=wrap;html=1;fillColor=#e1d5e7;strokeColor=#9673a6;" vertex="1" parent="1">
          <mxGeometry x="20" y="120" width="250" height="170" as="geometry" />
        </mxCell>
        <mxCell id="SjrpTv4pFNnKmY8m8KMZ-5" value="The set of &lt;b&gt;Natural numbers&lt;/b&gt; for standard addition and multiplication is a semiring which is not a ring: if you take 1 for instance, any other natural number you add to it will give something &amp;gt; 0. In particular 1 cannot have an opposite element (it&#39;s the case of many others). It does however, stisfy alll axioms of being a ring execpt this one. Which makes it a semiring" style="rounded=0;whiteSpace=wrap;html=1;fillColor=#fff2cc;strokeColor=#d6b656;" vertex="1" parent="1">
          <mxGeometry x="560" y="120" width="260" height="170" as="geometry" />
        </mxCell>
        <mxCell id="SjrpTv4pFNnKmY8m8KMZ-6" value="&lt;div style=&quot;font-size: 16px&quot; align=&quot;left&quot;&gt;&lt;b&gt;What a ring is:&lt;/b&gt;&lt;br&gt;&lt;/div&gt;&lt;div&gt;&lt;br&gt;&lt;/div&gt;&lt;div&gt;A ring is a tripplet (A, x, .) that is composed:&lt;/div&gt;&lt;div&gt;- Of a neutral element for the addition and the multiplication;&lt;/div&gt;&lt;div align=&quot;left&quot;&gt;- Of 2 binary operations A x A -&amp;gt; A + and . called multiplication and addition;&lt;br&gt;&lt;/div&gt;" style="rounded=0;whiteSpace=wrap;html=1;fillColor=#e1d5e7;strokeColor=#9673a6;" vertex="1" parent="1">
          <mxGeometry x="20" y="350" width="250" height="170" as="geometry" />
        </mxCell>
        <mxCell id="SjrpTv4pFNnKmY8m8KMZ-7" value="Rings" style="rounded=1;whiteSpace=wrap;html=1;fillColor=#f8cecc;strokeColor=#b85450;" vertex="1" parent="1">
          <mxGeometry x="354" y="400" width="120" height="40" as="geometry" />
        </mxCell>
        <mxCell id="SjrpTv4pFNnKmY8m8KMZ-8" value="" style="endArrow=classic;html=1;entryX=0.5;entryY=0;entryDx=0;entryDy=0;" edge="1" parent="1" target="SjrpTv4pFNnKmY8m8KMZ-7">
          <mxGeometry width="50" height="50" relative="1" as="geometry">
            <mxPoint x="410" y="200" as="sourcePoint" />
            <mxPoint x="440" y="410" as="targetPoint" />
            <Array as="points">
              <mxPoint x="420" y="200" />
              <mxPoint x="414" y="210" />
            </Array>
          </mxGeometry>
        </mxCell>
        <mxCell id="SjrpTv4pFNnKmY8m8KMZ-9" value="&lt;div style=&quot;font-size: 16px&quot; align=&quot;left&quot;&gt;&lt;b&gt;What a commutative ring is:&lt;/b&gt;&lt;br&gt;&lt;/div&gt;&lt;div&gt;&lt;br&gt;&lt;/div&gt;&lt;div align=&quot;left&quot;&gt;A commutative ring is a ring in which the multiplication operation is commutative&lt;br&gt;&lt;/div&gt;" style="rounded=0;whiteSpace=wrap;html=1;fillColor=#e1d5e7;strokeColor=#9673a6;" vertex="1" parent="1">
          <mxGeometry x="20" y="584.5" width="250" height="170" as="geometry" />
        </mxCell>
        <mxCell id="SjrpTv4pFNnKmY8m8KMZ-10" value="Commutative rings" style="rounded=1;whiteSpace=wrap;html=1;fillColor=#f8cecc;strokeColor=#b85450;" vertex="1" parent="1">
          <mxGeometry x="354" y="639.5" width="120" height="60" as="geometry" />
        </mxCell>
        <mxCell id="SjrpTv4pFNnKmY8m8KMZ-11" value="" style="endArrow=classic;html=1;exitX=0.5;exitY=1;exitDx=0;exitDy=0;entryX=0.5;entryY=0;entryDx=0;entryDy=0;" edge="1" parent="1" source="SjrpTv4pFNnKmY8m8KMZ-7" target="SjrpTv4pFNnKmY8m8KMZ-10">
          <mxGeometry width="50" height="50" relative="1" as="geometry">
            <mxPoint x="390" y="610" as="sourcePoint" />
            <mxPoint x="440" y="560" as="targetPoint" />
          </mxGeometry>
        </mxCell>
        <mxCell id="SjrpTv4pFNnKmY8m8KMZ-12" value="&lt;div&gt;The set of &lt;b&gt;square matrice&lt;/b&gt; of size n&amp;gt;= 2 is a ring but is not a commutative ring since &lt;br&gt;&lt;/div&gt;&lt;div&gt;A . B != B . A&lt;/div&gt;&lt;div&gt;(The multiplication operation is not commutative)&amp;nbsp; &lt;/div&gt;" style="rounded=0;whiteSpace=wrap;html=1;fillColor=#fff2cc;strokeColor=#d6b656;" vertex="1" parent="1">
          <mxGeometry x="560" y="350" width="260" height="170" as="geometry" />
        </mxCell>
      </root>
    </mxGraphModel>
  </diagram>
</mxfile>
